<?xml version="1.0" encoding="iso-8859-1"?>
<!-- Generator: Adobe Illustrator 19.0.0, SVG Export Plug-In . SVG Version: 6.00 Build 0)  -->
<svg version="1.1" id="Capa_1" xmlns="http://www.w3.org/2000/svg" xmlns:xlink="http://www.w3.org/1999/xlink" x="0px" y="0px"
	 viewBox="0 0 512 512" style="enable-background:new 0 0 512 512;" xml:space="preserve">
<g>
	<g>
		<path d="M214.998,319.496c-8.284,0.006-15.004,6.727-15.01,15.01c-0.006,8.283,6.705,14.994,14.988,14.988
			s15.004-6.727,15.01-15.01S223.282,319.49,214.998,319.496z"/>
	</g>
</g>
<g>
	<g>
		<path d="M165.001,319.496c-8.284,0.006-15.004,6.727-15.01,15.01s6.705,14.994,14.988,14.988
			c8.283-0.006,15.004-6.727,15.01-15.01S173.285,319.49,165.001,319.496z"/>
	</g>
</g>
<g>
	<g>
		<path d="M115.004,319.496c-8.284,0.006-15.004,6.727-15.01,15.01c-0.006,8.283,6.705,14.994,14.988,14.988
			s15.004-6.727,15.01-15.01S123.288,319.49,115.004,319.496z"/>
	</g>
</g>
<g>
	<g>
		<path d="M65.007,319.496c-8.284,0.006-15.004,6.727-15.01,15.01s6.705,14.994,14.988,14.988c8.283-0.006,15.004-6.727,15.01-15.01
			S73.291,319.49,65.007,319.496z"/>
	</g>
</g>
<g>
	<g>
		<path d="M324.992,319.496c-8.284,0.006-15.004,6.727-15.01,15.01c-0.006,8.283,6.705,14.994,14.988,14.988
			c8.284-0.006,15.004-6.727,15.01-15.01C339.986,326.201,333.275,319.49,324.992,319.496z"/>
	</g>
</g>
<g>
	<g>
		<path d="M240.56,54.112L229.514,57c-22.444,5.866-46.606,5.866-69.051,0l-11.046-2.887L54.475,217.965l13.042,7.503
			c29.132,16.759,60.824,27.476,94.198,31.854c11.16,1.464,22.318,2.195,33.448,2.194c22.153,0,44.183-2.896,65.809-8.669
			c21.513-5.744,42.202-14.282,61.49-25.379l13.042-7.503L240.56,54.112z M253.233,221.863c-28.677,7.657-58.156,9.579-87.617,5.715
			c-24.455-3.208-47.887-10.272-69.85-21.041l68.369-117.991c20.284,3.813,41.425,3.813,61.708,0l68.365,117.985
			C281.093,212.952,267.364,218.09,253.233,221.863z"/>
	</g>
</g>
<g>
	<g>
		<path d="M186.966,175.86c-7.756,0.366-15.571-0.271-23.228-1.891c-7.657-1.62-15.059-4.204-22.001-7.679l-13.429,26.824
			c9.23,4.621,19.062,8.054,29.22,10.202c8.299,1.757,16.745,2.641,25.183,2.641c1.89,0,3.78-0.044,5.667-0.133L186.966,175.86z"/>
	</g>
</g>
<g>
	<g>
		<path d="M247.953,146.29c-6.943,3.476-14.345,6.06-22.002,7.68c-7.657,1.62-15.472,2.257-23.227,1.891l-1.412,29.965
			c1.888,0.089,3.777,0.133,5.667,0.133c8.437,0,16.883-0.885,25.182-2.641c10.159-2.149,19.991-5.583,29.221-10.203L247.953,146.29
			z"/>
	</g>
</g>
<g>
	<g>
		<path d="M218.133,108.728c-15.02,3.927-31.208,3.927-46.229,0l-7.586,29.023c9.985,2.61,20.315,3.933,30.7,3.933
			s20.715-1.323,30.7-3.933L218.133,108.728z"/>
	</g>
</g>
<g>
	<g>
		<path d="M504.97,113.508c-14.246-10.685-31.189-16.332-48.997-16.332c-17.808,0-34.751,5.648-48.997,16.332l-7.03,5.272
			l12.896,96.722h28.131V420.99c0,27.844-22.653,50.497-50.497,50.497c-27.844,0-50.497-22.653-50.497-50.497v-20.499h49.997V10.514
			H0v389.977h309.982v20.499c0,44.385,36.11,80.495,80.495,80.495s80.495-36.11,80.495-80.495V215.503h28.131L512,118.78
			L504.97,113.508z M29.998,40.513h329.981V270.5H29.998V40.513z M29.998,370.493v-69.996h329.981v69.996H29.998z M472.839,185.504
			h-33.732l-6.998-52.478c14.888-7.716,32.839-7.716,47.726,0L472.839,185.504z"/>
	</g>
</g>
<g>
</g>
<g>
</g>
<g>
</g>
<g>
</g>
<g>
</g>
<g>
</g>
<g>
</g>
<g>
</g>
<g>
</g>
<g>
</g>
<g>
</g>
<g>
</g>
<g>
</g>
<g>
</g>
<g>
</g>
</svg>
